<svg width="464" height="464" viewBox="0 0 464 464" fill="none" xmlns="http://www.w3.org/2000/svg">
<path d="M431 232C431 122.095 341.905 33 232 33C122.095 33 33 122.095 33 232C33 341.905 122.095 431 232 431V464C103.87 464 0 360.13 0 232C0 103.87 103.87 0 232 0C360.13 0 464 103.87 464 232C464 360.13 360.13 464 232 464V431C341.905 431 431 341.905 431 232Z" fill="#0059FF"/>
<path d="M167.948 306V164.8H251.548C260.348 165.2 276.748 165.8 287.348 176.2C293.748 182.2 296.948 191.6 296.948 200.6C296.948 211 292.548 219.8 286.948 225.4C283.148 229.2 279.548 230.8 274.948 233C280.748 234.6 285.948 236 291.548 241.6C299.548 249.4 300.948 258.6 300.948 265.6C300.948 276.2 297.748 287.2 290.548 294.4C279.948 305.2 265.348 305.6 254.348 306H167.948ZM238.148 194.6H212.548V218.6H237.148C241.348 218.6 251.748 218.6 251.748 206.8C251.748 195.2 242.148 194.8 238.148 194.6ZM239.348 248.2H212.348V275.6H240.348C244.348 275.4 248.548 275.2 251.948 271.4C254.148 269.2 255.548 265.8 255.548 262.2C255.548 249 243.548 248.4 239.348 248.2Z" fill="#0059FF"/>
<path d="M309.652 268.4H346.052V306H309.652V268.4Z" fill="#0059FF"/>
</svg>
