<svg width="695" height="94" viewBox="0 0 695 94" fill="none" xmlns="http://www.w3.org/2000/svg">
<path d="M0 90.368V0H53.504C59.136 0.255997 69.632 0.639992 76.416 7.29599C80.512 11.136 82.56 17.152 82.56 22.912C82.56 29.568 79.744 35.2 76.16 38.784C73.728 41.216 71.424 42.24 68.48 43.648C72.192 44.672 75.52 45.568 79.104 49.152C84.224 54.144 85.12 60.032 85.12 64.512C85.12 71.296 83.072 78.336 78.464 82.944C71.68 89.856 62.336 90.112 55.296 90.368H0ZM44.928 19.072H28.544V34.432H44.288C46.976 34.432 53.632 34.432 53.632 26.88C53.632 19.456 47.488 19.2 44.928 19.072ZM45.696 53.376H28.416V70.912H46.336C48.896 70.784 51.584 70.656 53.76 68.224C55.168 66.816 56.064 64.64 56.064 62.336C56.064 53.888 48.384 53.504 45.696 53.376Z" fill="#0059FF"/>
<path d="M115.778 43.392L91.074 44.032C92.098 38.4 93.506 31.36 102.978 26.368C110.402 22.528 119.874 21.888 126.786 21.888C158.274 21.888 158.274 38.144 158.274 46.08V82.176C158.274 86.528 158.658 87.68 160.578 90.368H134.594V85.248C131.266 87.552 125.122 91.904 112.706 91.904C96.066 91.904 88.77 81.792 88.77 70.528C88.77 66.56 89.666 61.056 94.402 56.32C100.418 50.176 107.586 49.152 119.234 47.616C126.53 46.592 129.346 45.952 133.314 44.8C133.186 40.32 131.906 37.248 124.354 37.248C118.338 37.248 116.674 38.784 115.778 43.392ZM133.186 59.52C130.626 60.416 128.066 61.312 125.378 62.08C123.202 62.592 120.898 63.104 118.594 63.872C113.474 65.92 113.218 68.992 113.218 69.76C113.218 71.552 114.754 74.88 119.746 74.88C123.458 74.88 129.602 72.448 131.906 67.328C133.186 64.512 133.186 61.824 133.186 59.52Z" fill="#0059FF"/>
<path d="M192.9 23.68V29.824C200.068 23.424 204.932 22.656 215.044 22.656V44.928C213.252 44.8 211.46 44.672 209.668 44.672C194.18 44.672 193.924 54.784 193.796 59.136V90.368H167.556V23.68H192.9Z" fill="#0059FF"/>
<path d="M255.006 21.248C268.446 21.376 277.662 25.984 282.782 30.848C289.054 36.864 293.15 46.848 293.15 57.344C293.15 78.208 278.686 92.928 253.598 92.928C226.846 92.928 215.838 75.52 215.838 57.728C215.838 35.968 230.558 21.12 255.006 21.248ZM254.238 39.808C244.254 40.064 242.078 49.536 242.078 56.96C242.078 63.36 243.614 74.496 254.366 74.496C263.582 74.496 266.526 66.688 266.526 56.704C266.526 52.736 266.27 39.424 254.238 39.808Z" fill="#0059FF"/>
<path d="M325.34 24.192V33.664C327.388 30.336 331.868 22.528 346.332 22.528C348.636 22.528 352.348 22.784 356.444 24.064C365.02 26.752 367.58 31.488 369.372 34.944C371.292 30.592 377.308 22.528 392.412 22.528C399.58 22.528 406.492 24.832 410.844 29.184C416.86 35.072 416.988 42.24 417.116 48.512V90.368H390.748V55.68C390.748 51.456 390.62 44.288 381.532 44.288C371.932 44.288 371.804 52.096 371.804 55.04V90.496H345.436V54.656C345.436 53.376 345.308 52.096 345.052 50.816C343.9 45.696 339.42 44.288 336.22 44.288C333.532 44.288 330.844 45.184 329.052 46.976C326.62 49.408 326.62 52.096 326.492 54.4V90.496H300.124V24.192H325.34Z" fill="#0059FF"/>
<path d="M473.692 65.792L495.452 74.88C487.644 86.784 476.124 93.056 460.252 93.056C435.676 93.056 423.644 75.392 423.644 56.96C423.644 35.328 438.62 21.376 460.124 21.376C468.188 21.376 478.684 23.424 486.748 31.232C496.476 40.832 496.604 51.84 496.86 61.952H450.524C450.652 64.896 450.78 68.352 453.724 71.296C454.364 71.936 456.796 74.368 461.66 74.368C467.676 74.368 471.004 71.168 473.692 65.792ZM450.78 48H469.98C469.852 46.976 469.852 45.952 469.596 44.928C468.444 40.192 464.348 38.144 460.764 38.144C452.828 38.144 451.42 45.056 450.78 48Z" fill="#0059FF"/>
<path d="M506.654 25.6L506.91 4.73599H533.406L533.15 25.6H544.542V39.936H533.022L532.766 65.408C532.766 67.968 532.894 72.32 539.934 72.32C541.47 72.32 543.134 72.064 544.67 71.808V89.856C538.782 90.624 533.534 91.264 528.03 91.264C525.214 91.264 515.87 91.136 510.622 85.76C506.142 81.28 506.142 75.392 506.142 72.064L506.526 39.936H497.438V25.6H506.654Z" fill="#0059FF"/>
<path d="M596.382 65.792L618.142 74.88C610.334 86.784 598.814 93.056 582.942 93.056C558.366 93.056 546.334 75.392 546.334 56.96C546.334 35.328 561.31 21.376 582.814 21.376C590.878 21.376 601.374 23.424 609.438 31.232C619.166 40.832 619.294 51.84 619.55 61.952H573.214C573.342 64.896 573.47 68.352 576.414 71.296C577.054 71.936 579.486 74.368 584.35 74.368C590.366 74.368 593.694 71.168 596.382 65.792ZM573.47 48H592.67C592.542 46.976 592.542 45.952 592.286 44.928C591.134 40.192 587.038 38.144 583.454 38.144C575.518 38.144 574.11 45.056 573.47 48Z" fill="#0059FF"/>
<path d="M650.72 23.68V29.824C657.888 23.424 662.752 22.656 672.864 22.656V44.928C671.072 44.8 669.28 44.672 667.488 44.672C652 44.672 651.744 54.784 651.616 59.136V90.368H625.376V23.68H650.72Z" fill="#0059FF"/>
<path d="M671.325 66.304H694.621V90.368H671.325V66.304Z" fill="#0059FF"/>
</svg>
