<svg width="928" height="928" viewBox="0 0 928 928" fill="none" xmlns="http://www.w3.org/2000/svg">
<path d="M862 464C862 244.191 683.809 66 464 66C244.191 66 66 244.191 66 464C66 683.809 244.191 862 464 862V928C207.74 928 0 720.26 0 464C0 207.74 207.74 0 464 0C720.26 0 928 207.74 928 464C928 720.26 720.26 928 464 928V862C683.809 862 862 683.809 862 464Z" fill="#0D00FF"/>
<path d="M335.897 612V329.6H503.097C520.697 330.4 553.497 331.6 574.697 352.4C587.497 364.4 593.897 383.2 593.897 401.2C593.897 422 585.097 439.6 573.897 450.8C566.297 458.4 559.097 461.6 549.897 466C561.497 469.2 571.897 472 583.097 483.2C599.097 498.8 601.897 517.2 601.897 531.2C601.897 552.4 595.497 574.4 581.097 588.8C559.897 610.4 530.697 611.2 508.697 612H335.897ZM476.297 389.2H425.097V437.2H474.297C482.697 437.2 503.497 437.2 503.497 413.6C503.497 390.4 484.297 389.6 476.297 389.2ZM478.697 496.4H424.697V551.2H480.697C488.697 550.8 497.097 550.4 503.897 542.8C508.297 538.4 511.097 531.6 511.097 524.4C511.097 498 487.097 496.8 478.697 496.4Z" fill="#0D00FF"/>
<path d="M619.303 536.8H692.103V612H619.303V536.8Z" fill="#0D00FF"/>
</svg>
