<svg width="999" height="266" viewBox="0 0 999 266" fill="none" xmlns="http://www.w3.org/2000/svg">
<path d="M152 176.368V86H205.504C211.136 86.256 221.632 86.64 228.416 93.296C232.512 97.136 234.56 103.152 234.56 108.912C234.56 115.568 231.744 121.2 228.16 124.784C225.728 127.216 223.424 128.24 220.48 129.648C224.192 130.672 227.52 131.568 231.104 135.152C236.224 140.144 237.12 146.032 237.12 150.512C237.12 157.296 235.072 164.336 230.464 168.944C223.68 175.856 214.336 176.112 207.296 176.368H152ZM196.928 105.072H180.544V120.432H196.288C198.976 120.432 205.632 120.432 205.632 112.88C205.632 105.456 199.488 105.2 196.928 105.072ZM197.696 139.376H180.416V156.912H198.336C200.896 156.784 203.584 156.656 205.76 154.224C207.168 152.816 208.064 150.64 208.064 148.336C208.064 139.888 200.384 139.504 197.696 139.376Z" fill="#0D00FF"/>
<path d="M267.778 129.392L243.074 130.032C244.098 124.4 245.506 117.36 254.978 112.368C262.402 108.528 271.874 107.888 278.786 107.888C310.274 107.888 310.274 124.144 310.274 132.08V168.176C310.274 172.528 310.658 173.68 312.578 176.368H286.594V171.248C283.266 173.552 277.122 177.904 264.706 177.904C248.066 177.904 240.77 167.792 240.77 156.528C240.77 152.56 241.666 147.056 246.402 142.32C252.418 136.176 259.586 135.152 271.234 133.616C278.53 132.592 281.346 131.952 285.314 130.8C285.186 126.32 283.906 123.248 276.354 123.248C270.338 123.248 268.674 124.784 267.778 129.392ZM285.186 145.52C282.626 146.416 280.066 147.312 277.378 148.08C275.202 148.592 272.898 149.104 270.594 149.872C265.474 151.92 265.218 154.992 265.218 155.76C265.218 157.552 266.754 160.88 271.746 160.88C275.458 160.88 281.602 158.448 283.906 153.328C285.186 150.512 285.186 147.824 285.186 145.52Z" fill="#0D00FF"/>
<path d="M344.9 109.68V115.824C352.068 109.424 356.932 108.656 367.044 108.656V130.928C365.252 130.8 363.46 130.672 361.668 130.672C346.18 130.672 345.924 140.784 345.796 145.136V176.368H319.556V109.68H344.9Z" fill="#0D00FF"/>
<path d="M407.006 107.248C420.446 107.376 429.662 111.984 434.782 116.848C441.054 122.864 445.15 132.848 445.15 143.344C445.15 164.208 430.686 178.928 405.598 178.928C378.846 178.928 367.838 161.52 367.838 143.728C367.838 121.968 382.558 107.12 407.006 107.248ZM406.238 125.808C396.254 126.064 394.078 135.536 394.078 142.96C394.078 149.36 395.614 160.496 406.366 160.496C415.582 160.496 418.526 152.688 418.526 142.704C418.526 138.736 418.27 125.424 406.238 125.808Z" fill="#0D00FF"/>
<path d="M477.34 110.192V119.664C479.388 116.336 483.868 108.528 498.332 108.528C500.636 108.528 504.348 108.784 508.444 110.064C517.02 112.752 519.58 117.488 521.372 120.944C523.292 116.592 529.308 108.528 544.412 108.528C551.58 108.528 558.492 110.832 562.844 115.184C568.86 121.072 568.988 128.24 569.116 134.512V176.368H542.748V141.68C542.748 137.456 542.62 130.288 533.532 130.288C523.932 130.288 523.804 138.096 523.804 141.04V176.496H497.436V140.656C497.436 139.376 497.308 138.096 497.052 136.816C495.9 131.696 491.42 130.288 488.22 130.288C485.532 130.288 482.844 131.184 481.052 132.976C478.62 135.408 478.62 138.096 478.492 140.4V176.496H452.124V110.192H477.34Z" fill="#0D00FF"/>
<path d="M625.692 151.792L647.452 160.88C639.644 172.784 628.124 179.056 612.252 179.056C587.676 179.056 575.644 161.392 575.644 142.96C575.644 121.328 590.62 107.376 612.124 107.376C620.188 107.376 630.684 109.424 638.748 117.232C648.476 126.832 648.604 137.84 648.86 147.952H602.524C602.652 150.896 602.78 154.352 605.724 157.296C606.364 157.936 608.796 160.368 613.66 160.368C619.676 160.368 623.004 157.168 625.692 151.792ZM602.78 134H621.98C621.852 132.976 621.852 131.952 621.596 130.928C620.444 126.192 616.348 124.144 612.764 124.144C604.828 124.144 603.42 131.056 602.78 134Z" fill="#0D00FF"/>
<path d="M658.654 111.6L658.91 90.736H685.406L685.15 111.6H696.542V125.936H685.022L684.766 151.408C684.766 153.968 684.894 158.32 691.934 158.32C693.47 158.32 695.134 158.064 696.67 157.808V175.856C690.782 176.624 685.534 177.264 680.03 177.264C677.214 177.264 667.87 177.136 662.622 171.76C658.142 167.28 658.142 161.392 658.142 158.064L658.526 125.936H649.438V111.6H658.654Z" fill="#0D00FF"/>
<path d="M748.382 151.792L770.142 160.88C762.334 172.784 750.814 179.056 734.942 179.056C710.366 179.056 698.334 161.392 698.334 142.96C698.334 121.328 713.31 107.376 734.814 107.376C742.878 107.376 753.374 109.424 761.438 117.232C771.166 126.832 771.294 137.84 771.55 147.952H725.214C725.342 150.896 725.47 154.352 728.414 157.296C729.054 157.936 731.486 160.368 736.35 160.368C742.366 160.368 745.694 157.168 748.382 151.792ZM725.47 134H744.67C744.542 132.976 744.542 131.952 744.286 130.928C743.134 126.192 739.038 124.144 735.454 124.144C727.518 124.144 726.11 131.056 725.47 134Z" fill="#0D00FF"/>
<path d="M802.72 109.68V115.824C809.888 109.424 814.752 108.656 824.864 108.656V130.928C823.072 130.8 821.28 130.672 819.488 130.672C804 130.672 803.744 140.784 803.616 145.136V176.368H777.376V109.68H802.72Z" fill="#0D00FF"/>
<path d="M823.325 152.304H846.621V176.368H823.325V152.304Z" fill="#0D00FF"/>
</svg>
